<mxfile host="www.draw.io" modified="2020-01-30T23:34:24.647Z" agent="Mozilla/5.0 (Windows NT 10.0; Win64; x64; rv:72.0) Gecko/20100101 Firefox/72.0" etag="Mo3fN6YE7zU1jmpZIrFZ" version="12.6.2" type="github">
  <diagram id="f0YfuGNQZFWZhtL-PyhI" name="Page-1">
    <mxGraphModel dx="1818" dy="2815" grid="1" gridSize="10" guides="1" tooltips="1" connect="1" arrows="1" fold="1" page="1" pageScale="1" pageWidth="850" pageHeight="1100" math="0" shadow="0">
      <root>
        <mxCell id="0"/>
        <mxCell id="1" parent="0"/>
        <mxCell id="-kzHclHEMUVfxEQlwv1H-5" value="" style="verticalLabelPosition=bottom;verticalAlign=top;html=1;shadow=0;dashed=0;strokeWidth=1;shape=mxgraph.ios.iBgFlat;strokeColor=#18211b;" vertex="1" parent="1">
          <mxGeometry x="-786.25" y="-2130" width="175" height="280" as="geometry"/>
        </mxCell>
        <mxCell id="-kzHclHEMUVfxEQlwv1H-6" value="" style="verticalLabelPosition=bottom;verticalAlign=top;html=1;shadow=0;dashed=0;strokeWidth=1;shape=mxgraph.android.phone2;strokeColor=#c0c0c0;" vertex="1" parent="1">
          <mxGeometry x="-800" y="-2170" width="200" height="390" as="geometry"/>
        </mxCell>
        <mxCell id="-kzHclHEMUVfxEQlwv1H-7" value="" style="verticalLabelPosition=bottom;verticalAlign=top;html=1;shadow=0;dashed=0;strokeWidth=2;shape=mxgraph.android.navigation_bar_1;fillColor=#1A1A1A;strokeColor=#999999;" vertex="1" parent="1">
          <mxGeometry x="-787.5" y="-1850" width="177.5" height="30" as="geometry"/>
        </mxCell>
        <mxCell id="-kzHclHEMUVfxEQlwv1H-12" value="Appnamehere" style="rounded=0;whiteSpace=wrap;html=1;align=left;" vertex="1" parent="1">
          <mxGeometry x="-783.75" y="-2130" width="170" height="20" as="geometry"/>
        </mxCell>
        <mxCell id="-kzHclHEMUVfxEQlwv1H-13" value="" style="ellipse;whiteSpace=wrap;html=1;aspect=fixed;" vertex="1" parent="1">
          <mxGeometry x="-652.5" y="-1920" width="30" height="30" as="geometry"/>
        </mxCell>
        <mxCell id="-kzHclHEMUVfxEQlwv1H-134" style="edgeStyle=orthogonalEdgeStyle;rounded=0;orthogonalLoop=1;jettySize=auto;html=1;entryX=0.5;entryY=0;entryDx=0;entryDy=0;" edge="1" parent="1" source="-kzHclHEMUVfxEQlwv1H-14" target="-kzHclHEMUVfxEQlwv1H-116">
          <mxGeometry relative="1" as="geometry">
            <Array as="points">
              <mxPoint x="-600" y="-1865"/>
              <mxPoint x="-600" y="-1490"/>
              <mxPoint x="-535" y="-1490"/>
            </Array>
          </mxGeometry>
        </mxCell>
        <mxCell id="-kzHclHEMUVfxEQlwv1H-14" value="&lt;div align=&quot;right&quot;&gt;Dashboard &lt;br&gt;&lt;/div&gt;&lt;div align=&quot;right&quot;&gt;Icon/Button&lt;br&gt;&lt;/div&gt;" style="rounded=0;whiteSpace=wrap;html=1;align=right;" vertex="1" parent="1">
          <mxGeometry x="-790" y="-1880" width="180" height="30" as="geometry"/>
        </mxCell>
        <mxCell id="-kzHclHEMUVfxEQlwv1H-16" value="Image Icon/Button" style="rounded=0;whiteSpace=wrap;html=1;" vertex="1" parent="1">
          <mxGeometry x="-790" y="-1880" width="90" height="30" as="geometry"/>
        </mxCell>
        <mxCell id="-kzHclHEMUVfxEQlwv1H-17" value="" style="curved=1;endArrow=classic;html=1;" edge="1" parent="1" target="-kzHclHEMUVfxEQlwv1H-18">
          <mxGeometry width="50" height="50" relative="1" as="geometry">
            <mxPoint x="-622.5" y="-1910" as="sourcePoint"/>
            <mxPoint x="-562" y="-1960" as="targetPoint"/>
            <Array as="points">
              <mxPoint x="-572.5" y="-1910"/>
              <mxPoint x="-562.5" y="-1930"/>
              <mxPoint x="-622.5" y="-1960"/>
            </Array>
          </mxGeometry>
        </mxCell>
        <mxCell id="-kzHclHEMUVfxEQlwv1H-18" value="Calendar Button" style="rounded=0;whiteSpace=wrap;html=1;" vertex="1" parent="1">
          <mxGeometry x="-570" y="-1990" width="70" height="60" as="geometry"/>
        </mxCell>
        <mxCell id="-kzHclHEMUVfxEQlwv1H-19" value="" style="shape=mxgraph.signs.nature.moon;html=1;pointerEvents=1;fillColor=#000000;strokeColor=none;verticalLabelPosition=bottom;verticalAlign=top;align=center;" vertex="1" parent="1">
          <mxGeometry x="-770" y="-2050" width="76" height="99" as="geometry"/>
        </mxCell>
        <mxCell id="-kzHclHEMUVfxEQlwv1H-25" value="" style="edgeStyle=orthogonalEdgeStyle;rounded=0;orthogonalLoop=1;jettySize=auto;html=1;" edge="1" parent="1" source="-kzHclHEMUVfxEQlwv1H-20">
          <mxGeometry relative="1" as="geometry">
            <mxPoint x="-570" y="-2040" as="targetPoint"/>
          </mxGeometry>
        </mxCell>
        <mxCell id="-kzHclHEMUVfxEQlwv1H-20" value="" style="shape=mxgraph.signs.nature.sun_3;html=1;pointerEvents=1;fillColor=#000000;strokeColor=none;verticalLabelPosition=bottom;verticalAlign=top;align=center;" vertex="1" parent="1">
          <mxGeometry x="-740" y="-2049" width="98" height="98" as="geometry"/>
        </mxCell>
        <mxCell id="-kzHclHEMUVfxEQlwv1H-27" value="&lt;div&gt;APoD&lt;/div&gt;&lt;div&gt;Image&lt;/div&gt;" style="whiteSpace=wrap;html=1;aspect=fixed;" vertex="1" parent="1">
          <mxGeometry x="-570" y="-2080" width="70" height="70" as="geometry"/>
        </mxCell>
        <mxCell id="-kzHclHEMUVfxEQlwv1H-28" value="" style="shape=flexArrow;endArrow=classic;html=1;" edge="1" parent="1">
          <mxGeometry width="50" height="50" relative="1" as="geometry">
            <mxPoint x="-600" y="-1820" as="sourcePoint"/>
            <mxPoint x="-430" y="-1820" as="targetPoint"/>
          </mxGeometry>
        </mxCell>
        <mxCell id="-kzHclHEMUVfxEQlwv1H-29" value="" style="verticalLabelPosition=bottom;verticalAlign=top;html=1;shadow=0;dashed=0;strokeWidth=1;shape=mxgraph.ios.iBgFlat;strokeColor=#18211b;" vertex="1" parent="1">
          <mxGeometry x="-416.25" y="-2130" width="175" height="280" as="geometry"/>
        </mxCell>
        <mxCell id="-kzHclHEMUVfxEQlwv1H-30" value="" style="verticalLabelPosition=bottom;verticalAlign=top;html=1;shadow=0;dashed=0;strokeWidth=1;shape=mxgraph.android.phone2;strokeColor=#c0c0c0;" vertex="1" parent="1">
          <mxGeometry x="-430" y="-2170" width="200" height="390" as="geometry"/>
        </mxCell>
        <mxCell id="-kzHclHEMUVfxEQlwv1H-31" value="" style="verticalLabelPosition=bottom;verticalAlign=top;html=1;shadow=0;dashed=0;strokeWidth=2;shape=mxgraph.android.navigation_bar_1;fillColor=#1A1A1A;strokeColor=#999999;" vertex="1" parent="1">
          <mxGeometry x="-417.5" y="-1850" width="177.5" height="30" as="geometry"/>
        </mxCell>
        <mxCell id="-kzHclHEMUVfxEQlwv1H-32" value="Appnamehere" style="rounded=0;whiteSpace=wrap;html=1;align=left;" vertex="1" parent="1">
          <mxGeometry x="-413.75" y="-2130" width="170" height="20" as="geometry"/>
        </mxCell>
        <mxCell id="-kzHclHEMUVfxEQlwv1H-45" value="" style="edgeStyle=orthogonalEdgeStyle;rounded=0;orthogonalLoop=1;jettySize=auto;html=1;" edge="1" parent="1" source="-kzHclHEMUVfxEQlwv1H-33">
          <mxGeometry relative="1" as="geometry">
            <mxPoint x="-267.5" y="-1945" as="targetPoint"/>
          </mxGeometry>
        </mxCell>
        <mxCell id="-kzHclHEMUVfxEQlwv1H-101" style="edgeStyle=orthogonalEdgeStyle;rounded=0;orthogonalLoop=1;jettySize=auto;html=1;exitX=1;exitY=0.5;exitDx=0;exitDy=0;" edge="1" parent="1" source="-kzHclHEMUVfxEQlwv1H-33" target="-kzHclHEMUVfxEQlwv1H-102">
          <mxGeometry relative="1" as="geometry">
            <mxPoint x="-200" y="-1950" as="targetPoint"/>
          </mxGeometry>
        </mxCell>
        <mxCell id="-kzHclHEMUVfxEQlwv1H-33" value="" style="ellipse;whiteSpace=wrap;html=1;aspect=fixed;" vertex="1" parent="1">
          <mxGeometry x="-282.5" y="-1920" width="30" height="30" as="geometry"/>
        </mxCell>
        <mxCell id="-kzHclHEMUVfxEQlwv1H-34" value="&lt;div align=&quot;right&quot;&gt;Dashboard &lt;br&gt;&lt;/div&gt;&lt;div align=&quot;right&quot;&gt;Icon/Button&lt;br&gt;&lt;/div&gt;" style="rounded=0;whiteSpace=wrap;html=1;align=right;" vertex="1" parent="1">
          <mxGeometry x="-420" y="-1880" width="180" height="30" as="geometry"/>
        </mxCell>
        <mxCell id="-kzHclHEMUVfxEQlwv1H-35" value="Image Icon/Button" style="rounded=0;whiteSpace=wrap;html=1;" vertex="1" parent="1">
          <mxGeometry x="-420" y="-1880" width="90" height="30" as="geometry"/>
        </mxCell>
        <mxCell id="-kzHclHEMUVfxEQlwv1H-38" value="" style="shape=mxgraph.signs.nature.moon;html=1;pointerEvents=1;fillColor=#000000;strokeColor=none;verticalLabelPosition=bottom;verticalAlign=top;align=center;" vertex="1" parent="1">
          <mxGeometry x="-400" y="-2050" width="76" height="99" as="geometry"/>
        </mxCell>
        <mxCell id="-kzHclHEMUVfxEQlwv1H-40" value="" style="shape=mxgraph.signs.nature.sun_3;html=1;pointerEvents=1;fillColor=#000000;strokeColor=none;verticalLabelPosition=bottom;verticalAlign=top;align=center;" vertex="1" parent="1">
          <mxGeometry x="-370" y="-2049" width="98" height="98" as="geometry"/>
        </mxCell>
        <mxCell id="-kzHclHEMUVfxEQlwv1H-43" value="" style="shape=flexArrow;endArrow=classic;html=1;" edge="1" parent="1">
          <mxGeometry width="50" height="50" relative="1" as="geometry">
            <mxPoint x="-600" y="-2110" as="sourcePoint"/>
            <mxPoint x="-430" y="-2110" as="targetPoint"/>
          </mxGeometry>
        </mxCell>
        <mxCell id="-kzHclHEMUVfxEQlwv1H-46" value="" style="dashed=0;aspect=fixed;verticalLabelPosition=bottom;verticalAlign=top;align=center;shape=mxgraph.gmdl.calendar;strokeColor=none;fillColor=#737373;shadow=0;" vertex="1" parent="1">
          <mxGeometry x="-647.5" y="-1915" width="20" height="20" as="geometry"/>
        </mxCell>
        <mxCell id="-kzHclHEMUVfxEQlwv1H-47" value="" style="strokeWidth=1;shadow=0;dashed=0;align=center;html=1;shape=mxgraph.mockup.forms.rrect;rSize=5;strokeColor=#999999;fillColor=#ffffff;" vertex="1" parent="1">
          <mxGeometry x="-360" y="-2060" width="110" height="115" as="geometry"/>
        </mxCell>
        <mxCell id="-kzHclHEMUVfxEQlwv1H-48" value="October 2014" style="strokeWidth=1;shadow=0;dashed=0;align=center;html=1;shape=mxgraph.mockup.forms.anchor;fontColor=#999999;" vertex="1" parent="-kzHclHEMUVfxEQlwv1H-47">
          <mxGeometry x="20.625" y="5.257142857142857" width="68.75" height="13.142857142857142" as="geometry"/>
        </mxCell>
        <mxCell id="-kzHclHEMUVfxEQlwv1H-49" value="&lt;" style="strokeWidth=1;shadow=0;dashed=0;align=center;html=1;shape=mxgraph.mockup.forms.rrect;rSize=4;strokeColor=#999999;fontColor=#008cff;fontSize=19;fontStyle=1;" vertex="1" parent="-kzHclHEMUVfxEQlwv1H-47">
          <mxGeometry x="5.5" y="5.257142857142857" width="17.1875" height="13.142857142857142" as="geometry"/>
        </mxCell>
        <mxCell id="-kzHclHEMUVfxEQlwv1H-50" value="&gt;" style="strokeWidth=1;shadow=0;dashed=0;align=center;html=1;shape=mxgraph.mockup.forms.rrect;rSize=4;strokeColor=#999999;fontColor=#008cff;fontSize=19;fontStyle=1;" vertex="1" parent="-kzHclHEMUVfxEQlwv1H-47">
          <mxGeometry x="87.3125" y="5.257142857142857" width="17.1875" height="13.142857142857142" as="geometry"/>
        </mxCell>
        <mxCell id="-kzHclHEMUVfxEQlwv1H-51" value="Mo" style="strokeWidth=1;shadow=0;dashed=0;align=center;html=1;shape=mxgraph.mockup.forms.anchor;fontColor=#999999;" vertex="1" parent="-kzHclHEMUVfxEQlwv1H-47">
          <mxGeometry x="6.875" y="18.4" width="13.75" height="13.142857142857142" as="geometry"/>
        </mxCell>
        <mxCell id="-kzHclHEMUVfxEQlwv1H-52" value="Tu" style="strokeWidth=1;shadow=0;dashed=0;align=center;html=1;shape=mxgraph.mockup.forms.anchor;fontColor=#999999;" vertex="1" parent="-kzHclHEMUVfxEQlwv1H-47">
          <mxGeometry x="20.625" y="18.4" width="13.75" height="13.142857142857142" as="geometry"/>
        </mxCell>
        <mxCell id="-kzHclHEMUVfxEQlwv1H-53" value="We" style="strokeWidth=1;shadow=0;dashed=0;align=center;html=1;shape=mxgraph.mockup.forms.anchor;fontColor=#999999;" vertex="1" parent="-kzHclHEMUVfxEQlwv1H-47">
          <mxGeometry x="34.375" y="18.4" width="13.75" height="13.142857142857142" as="geometry"/>
        </mxCell>
        <mxCell id="-kzHclHEMUVfxEQlwv1H-54" value="Th" style="strokeWidth=1;shadow=0;dashed=0;align=center;html=1;shape=mxgraph.mockup.forms.anchor;fontColor=#999999;" vertex="1" parent="-kzHclHEMUVfxEQlwv1H-47">
          <mxGeometry x="48.125" y="18.4" width="13.75" height="13.142857142857142" as="geometry"/>
        </mxCell>
        <mxCell id="-kzHclHEMUVfxEQlwv1H-55" value="Fr" style="strokeWidth=1;shadow=0;dashed=0;align=center;html=1;shape=mxgraph.mockup.forms.anchor;fontColor=#999999;" vertex="1" parent="-kzHclHEMUVfxEQlwv1H-47">
          <mxGeometry x="61.875" y="18.4" width="13.75" height="13.142857142857142" as="geometry"/>
        </mxCell>
        <mxCell id="-kzHclHEMUVfxEQlwv1H-56" value="Sa" style="strokeWidth=1;shadow=0;dashed=0;align=center;html=1;shape=mxgraph.mockup.forms.anchor;fontColor=#999999;" vertex="1" parent="-kzHclHEMUVfxEQlwv1H-47">
          <mxGeometry x="75.625" y="18.4" width="13.75" height="13.142857142857142" as="geometry"/>
        </mxCell>
        <mxCell id="-kzHclHEMUVfxEQlwv1H-57" value="Su" style="strokeWidth=1;shadow=0;dashed=0;align=center;html=1;shape=mxgraph.mockup.forms.anchor;fontColor=#999999;" vertex="1" parent="-kzHclHEMUVfxEQlwv1H-47">
          <mxGeometry x="89.375" y="18.4" width="13.75" height="13.142857142857142" as="geometry"/>
        </mxCell>
        <mxCell id="-kzHclHEMUVfxEQlwv1H-58" value="1" style="strokeWidth=1;shadow=0;dashed=0;align=center;html=1;shape=mxgraph.mockup.forms.rrect;rSize=0;strokeColor=#999999;fontColor=#999999;" vertex="1" parent="-kzHclHEMUVfxEQlwv1H-47">
          <mxGeometry x="6.875" y="31.542857142857144" width="13.75" height="13.142857142857142" as="geometry"/>
        </mxCell>
        <mxCell id="-kzHclHEMUVfxEQlwv1H-59" value="2" style="strokeWidth=1;shadow=0;dashed=0;align=center;html=1;shape=mxgraph.mockup.forms.rrect;rSize=0;strokeColor=#999999;fontColor=#999999;" vertex="1" parent="-kzHclHEMUVfxEQlwv1H-47">
          <mxGeometry x="20.625" y="31.542857142857144" width="13.75" height="13.142857142857142" as="geometry"/>
        </mxCell>
        <mxCell id="-kzHclHEMUVfxEQlwv1H-60" value="3" style="strokeWidth=1;shadow=0;dashed=0;align=center;html=1;shape=mxgraph.mockup.forms.rrect;rSize=0;strokeColor=#999999;fontColor=#999999;" vertex="1" parent="-kzHclHEMUVfxEQlwv1H-47">
          <mxGeometry x="34.375" y="31.542857142857144" width="13.75" height="13.142857142857142" as="geometry"/>
        </mxCell>
        <mxCell id="-kzHclHEMUVfxEQlwv1H-61" value="4" style="strokeWidth=1;shadow=0;dashed=0;align=center;html=1;shape=mxgraph.mockup.forms.rrect;rSize=0;strokeColor=#999999;fontColor=#999999;" vertex="1" parent="-kzHclHEMUVfxEQlwv1H-47">
          <mxGeometry x="48.125" y="31.542857142857144" width="13.75" height="13.142857142857142" as="geometry"/>
        </mxCell>
        <mxCell id="-kzHclHEMUVfxEQlwv1H-62" value="5" style="strokeWidth=1;shadow=0;dashed=0;align=center;html=1;shape=mxgraph.mockup.forms.rrect;rSize=0;strokeColor=#999999;fontColor=#999999;" vertex="1" parent="-kzHclHEMUVfxEQlwv1H-47">
          <mxGeometry x="61.875" y="31.542857142857144" width="13.75" height="13.142857142857142" as="geometry"/>
        </mxCell>
        <mxCell id="-kzHclHEMUVfxEQlwv1H-63" value="6" style="strokeWidth=1;shadow=0;dashed=0;align=center;html=1;shape=mxgraph.mockup.forms.rrect;rSize=0;strokeColor=#999999;fontColor=#999999;" vertex="1" parent="-kzHclHEMUVfxEQlwv1H-47">
          <mxGeometry x="75.625" y="31.542857142857144" width="13.75" height="13.142857142857142" as="geometry"/>
        </mxCell>
        <mxCell id="-kzHclHEMUVfxEQlwv1H-64" value="7" style="strokeWidth=1;shadow=0;dashed=0;align=center;html=1;shape=mxgraph.mockup.forms.rrect;rSize=0;strokeColor=#999999;fontColor=#999999;" vertex="1" parent="-kzHclHEMUVfxEQlwv1H-47">
          <mxGeometry x="89.375" y="31.542857142857144" width="13.75" height="13.142857142857142" as="geometry"/>
        </mxCell>
        <mxCell id="-kzHclHEMUVfxEQlwv1H-65" value="8" style="strokeWidth=1;shadow=0;dashed=0;align=center;html=1;shape=mxgraph.mockup.forms.rrect;rSize=0;strokeColor=#999999;fontColor=#999999;" vertex="1" parent="-kzHclHEMUVfxEQlwv1H-47">
          <mxGeometry x="6.875" y="44.68571428571428" width="13.75" height="13.142857142857142" as="geometry"/>
        </mxCell>
        <mxCell id="-kzHclHEMUVfxEQlwv1H-66" value="9" style="strokeWidth=1;shadow=0;dashed=0;align=center;html=1;shape=mxgraph.mockup.forms.rrect;rSize=0;strokeColor=#999999;fontColor=#999999;" vertex="1" parent="-kzHclHEMUVfxEQlwv1H-47">
          <mxGeometry x="20.625" y="44.68571428571428" width="13.75" height="13.142857142857142" as="geometry"/>
        </mxCell>
        <mxCell id="-kzHclHEMUVfxEQlwv1H-67" value="10" style="strokeWidth=1;shadow=0;dashed=0;align=center;html=1;shape=mxgraph.mockup.forms.rrect;rSize=0;strokeColor=#999999;fontColor=#999999;" vertex="1" parent="-kzHclHEMUVfxEQlwv1H-47">
          <mxGeometry x="34.375" y="44.68571428571428" width="13.75" height="13.142857142857142" as="geometry"/>
        </mxCell>
        <mxCell id="-kzHclHEMUVfxEQlwv1H-68" value="11" style="strokeWidth=1;shadow=0;dashed=0;align=center;html=1;shape=mxgraph.mockup.forms.rrect;rSize=0;strokeColor=#999999;fontColor=#999999;" vertex="1" parent="-kzHclHEMUVfxEQlwv1H-47">
          <mxGeometry x="48.125" y="44.68571428571428" width="13.75" height="13.142857142857142" as="geometry"/>
        </mxCell>
        <mxCell id="-kzHclHEMUVfxEQlwv1H-69" value="12" style="strokeWidth=1;shadow=0;dashed=0;align=center;html=1;shape=mxgraph.mockup.forms.rrect;rSize=0;strokeColor=#999999;fontColor=#999999;" vertex="1" parent="-kzHclHEMUVfxEQlwv1H-47">
          <mxGeometry x="61.875" y="44.68571428571428" width="13.75" height="13.142857142857142" as="geometry"/>
        </mxCell>
        <mxCell id="-kzHclHEMUVfxEQlwv1H-70" value="13" style="strokeWidth=1;shadow=0;dashed=0;align=center;html=1;shape=mxgraph.mockup.forms.rrect;rSize=0;strokeColor=#999999;fontColor=#999999;" vertex="1" parent="-kzHclHEMUVfxEQlwv1H-47">
          <mxGeometry x="75.625" y="44.68571428571428" width="13.75" height="13.142857142857142" as="geometry"/>
        </mxCell>
        <mxCell id="-kzHclHEMUVfxEQlwv1H-71" value="14" style="strokeWidth=1;shadow=0;dashed=0;align=center;html=1;shape=mxgraph.mockup.forms.rrect;rSize=0;strokeColor=#999999;fontColor=#999999;" vertex="1" parent="-kzHclHEMUVfxEQlwv1H-47">
          <mxGeometry x="89.375" y="44.68571428571428" width="13.75" height="13.142857142857142" as="geometry"/>
        </mxCell>
        <mxCell id="-kzHclHEMUVfxEQlwv1H-72" value="15" style="strokeWidth=1;shadow=0;dashed=0;align=center;html=1;shape=mxgraph.mockup.forms.rrect;rSize=0;strokeColor=#999999;fontColor=#999999;" vertex="1" parent="-kzHclHEMUVfxEQlwv1H-47">
          <mxGeometry x="6.875" y="57.82857142857143" width="13.75" height="13.142857142857142" as="geometry"/>
        </mxCell>
        <mxCell id="-kzHclHEMUVfxEQlwv1H-73" value="16" style="strokeWidth=1;shadow=0;dashed=0;align=center;html=1;shape=mxgraph.mockup.forms.rrect;rSize=0;strokeColor=#999999;fontColor=#999999;" vertex="1" parent="-kzHclHEMUVfxEQlwv1H-47">
          <mxGeometry x="20.625" y="57.82857142857143" width="13.75" height="13.142857142857142" as="geometry"/>
        </mxCell>
        <mxCell id="-kzHclHEMUVfxEQlwv1H-74" value="17" style="strokeWidth=1;shadow=0;dashed=0;align=center;html=1;shape=mxgraph.mockup.forms.rrect;rSize=0;strokeColor=#999999;fontColor=#999999;" vertex="1" parent="-kzHclHEMUVfxEQlwv1H-47">
          <mxGeometry x="34.375" y="57.82857142857143" width="13.75" height="13.142857142857142" as="geometry"/>
        </mxCell>
        <mxCell id="-kzHclHEMUVfxEQlwv1H-75" value="18" style="strokeWidth=1;shadow=0;dashed=0;align=center;html=1;shape=mxgraph.mockup.forms.rrect;rSize=0;strokeColor=#999999;fontColor=#999999;" vertex="1" parent="-kzHclHEMUVfxEQlwv1H-47">
          <mxGeometry x="48.125" y="57.82857142857143" width="13.75" height="13.142857142857142" as="geometry"/>
        </mxCell>
        <mxCell id="-kzHclHEMUVfxEQlwv1H-76" value="19" style="strokeWidth=1;shadow=0;dashed=0;align=center;html=1;shape=mxgraph.mockup.forms.rrect;rSize=0;strokeColor=#999999;fontColor=#999999;" vertex="1" parent="-kzHclHEMUVfxEQlwv1H-47">
          <mxGeometry x="61.875" y="57.82857142857143" width="13.75" height="13.142857142857142" as="geometry"/>
        </mxCell>
        <mxCell id="-kzHclHEMUVfxEQlwv1H-77" value="20" style="strokeWidth=1;shadow=0;dashed=0;align=center;html=1;shape=mxgraph.mockup.forms.rrect;rSize=0;strokeColor=#999999;fontColor=#999999;" vertex="1" parent="-kzHclHEMUVfxEQlwv1H-47">
          <mxGeometry x="75.625" y="57.82857142857143" width="13.75" height="13.142857142857142" as="geometry"/>
        </mxCell>
        <mxCell id="-kzHclHEMUVfxEQlwv1H-78" value="21" style="strokeWidth=1;shadow=0;dashed=0;align=center;html=1;shape=mxgraph.mockup.forms.rrect;rSize=0;strokeColor=#999999;fontColor=#999999;" vertex="1" parent="-kzHclHEMUVfxEQlwv1H-47">
          <mxGeometry x="89.375" y="57.82857142857143" width="13.75" height="13.142857142857142" as="geometry"/>
        </mxCell>
        <mxCell id="-kzHclHEMUVfxEQlwv1H-79" value="22" style="strokeWidth=1;shadow=0;dashed=0;align=center;html=1;shape=mxgraph.mockup.forms.rrect;rSize=0;strokeColor=#999999;fontColor=#999999;" vertex="1" parent="-kzHclHEMUVfxEQlwv1H-47">
          <mxGeometry x="6.875" y="70.97142857142858" width="13.75" height="13.142857142857142" as="geometry"/>
        </mxCell>
        <mxCell id="-kzHclHEMUVfxEQlwv1H-80" value="23" style="strokeWidth=1;shadow=0;dashed=0;align=center;html=1;shape=mxgraph.mockup.forms.rrect;rSize=0;strokeColor=#999999;fontColor=#999999;" vertex="1" parent="-kzHclHEMUVfxEQlwv1H-47">
          <mxGeometry x="20.625" y="70.97142857142858" width="13.75" height="13.142857142857142" as="geometry"/>
        </mxCell>
        <mxCell id="-kzHclHEMUVfxEQlwv1H-81" value="25" style="strokeWidth=1;shadow=0;dashed=0;align=center;html=1;shape=mxgraph.mockup.forms.rrect;rSize=0;strokeColor=#999999;fontColor=#999999;" vertex="1" parent="-kzHclHEMUVfxEQlwv1H-47">
          <mxGeometry x="48.125" y="70.97142857142858" width="13.75" height="13.142857142857142" as="geometry"/>
        </mxCell>
        <mxCell id="-kzHclHEMUVfxEQlwv1H-82" value="26" style="strokeWidth=1;shadow=0;dashed=0;align=center;html=1;shape=mxgraph.mockup.forms.rrect;rSize=0;strokeColor=#999999;fontColor=#999999;" vertex="1" parent="-kzHclHEMUVfxEQlwv1H-47">
          <mxGeometry x="61.875" y="70.97142857142858" width="13.75" height="13.142857142857142" as="geometry"/>
        </mxCell>
        <mxCell id="-kzHclHEMUVfxEQlwv1H-83" value="27" style="strokeWidth=1;shadow=0;dashed=0;align=center;html=1;shape=mxgraph.mockup.forms.rrect;rSize=0;strokeColor=#999999;fontColor=#999999;" vertex="1" parent="-kzHclHEMUVfxEQlwv1H-47">
          <mxGeometry x="75.625" y="70.97142857142858" width="13.75" height="13.142857142857142" as="geometry"/>
        </mxCell>
        <mxCell id="-kzHclHEMUVfxEQlwv1H-84" value="28" style="strokeWidth=1;shadow=0;dashed=0;align=center;html=1;shape=mxgraph.mockup.forms.rrect;rSize=0;strokeColor=#999999;fontColor=#999999;" vertex="1" parent="-kzHclHEMUVfxEQlwv1H-47">
          <mxGeometry x="89.375" y="70.97142857142858" width="13.75" height="13.142857142857142" as="geometry"/>
        </mxCell>
        <mxCell id="-kzHclHEMUVfxEQlwv1H-85" value="29" style="strokeWidth=1;shadow=0;dashed=0;align=center;html=1;shape=mxgraph.mockup.forms.rrect;rSize=0;strokeColor=#999999;fontColor=#999999;" vertex="1" parent="-kzHclHEMUVfxEQlwv1H-47">
          <mxGeometry x="6.875" y="84.11428571428571" width="13.75" height="13.142857142857142" as="geometry"/>
        </mxCell>
        <mxCell id="-kzHclHEMUVfxEQlwv1H-86" value="30" style="strokeWidth=1;shadow=0;dashed=0;align=center;html=1;shape=mxgraph.mockup.forms.rrect;rSize=0;strokeColor=#999999;fontColor=#999999;" vertex="1" parent="-kzHclHEMUVfxEQlwv1H-47">
          <mxGeometry x="20.625" y="84.11428571428571" width="13.75" height="13.142857142857142" as="geometry"/>
        </mxCell>
        <mxCell id="-kzHclHEMUVfxEQlwv1H-87" value="31" style="strokeWidth=1;shadow=0;dashed=0;align=center;html=1;shape=mxgraph.mockup.forms.rrect;rSize=0;strokeColor=#999999;fontColor=#999999;" vertex="1" parent="-kzHclHEMUVfxEQlwv1H-47">
          <mxGeometry x="34.375" y="84.11428571428571" width="13.75" height="13.142857142857142" as="geometry"/>
        </mxCell>
        <mxCell id="-kzHclHEMUVfxEQlwv1H-88" value="1" style="strokeWidth=1;shadow=0;dashed=0;align=center;html=1;shape=mxgraph.mockup.forms.rrect;rSize=0;strokeColor=#999999;fontColor=#999999;fillColor=#ddeeff;" vertex="1" parent="-kzHclHEMUVfxEQlwv1H-47">
          <mxGeometry x="48.125" y="84.11428571428571" width="13.75" height="13.142857142857142" as="geometry"/>
        </mxCell>
        <mxCell id="-kzHclHEMUVfxEQlwv1H-89" value="2" style="strokeWidth=1;shadow=0;dashed=0;align=center;html=1;shape=mxgraph.mockup.forms.rrect;rSize=0;strokeColor=#999999;fontColor=#999999;fillColor=#ddeeff;" vertex="1" parent="-kzHclHEMUVfxEQlwv1H-47">
          <mxGeometry x="61.875" y="84.11428571428571" width="13.75" height="13.142857142857142" as="geometry"/>
        </mxCell>
        <mxCell id="-kzHclHEMUVfxEQlwv1H-90" value="3" style="strokeWidth=1;shadow=0;dashed=0;align=center;html=1;shape=mxgraph.mockup.forms.rrect;rSize=0;strokeColor=#999999;fontColor=#999999;fillColor=#ddeeff;" vertex="1" parent="-kzHclHEMUVfxEQlwv1H-47">
          <mxGeometry x="75.625" y="84.11428571428571" width="13.75" height="13.142857142857142" as="geometry"/>
        </mxCell>
        <mxCell id="-kzHclHEMUVfxEQlwv1H-91" value="4" style="strokeWidth=1;shadow=0;dashed=0;align=center;html=1;shape=mxgraph.mockup.forms.rrect;rSize=0;strokeColor=#999999;fontColor=#999999;fillColor=#ddeeff;" vertex="1" parent="-kzHclHEMUVfxEQlwv1H-47">
          <mxGeometry x="89.375" y="84.11428571428571" width="13.75" height="13.142857142857142" as="geometry"/>
        </mxCell>
        <mxCell id="-kzHclHEMUVfxEQlwv1H-92" value="5" style="strokeWidth=1;shadow=0;dashed=0;align=center;html=1;shape=mxgraph.mockup.forms.rrect;rSize=0;strokeColor=#999999;fontColor=#999999;fillColor=#ddeeff;" vertex="1" parent="-kzHclHEMUVfxEQlwv1H-47">
          <mxGeometry x="6.875" y="97.25714285714285" width="13.75" height="13.142857142857142" as="geometry"/>
        </mxCell>
        <mxCell id="-kzHclHEMUVfxEQlwv1H-93" value="6" style="strokeWidth=1;shadow=0;dashed=0;align=center;html=1;shape=mxgraph.mockup.forms.rrect;rSize=0;strokeColor=#999999;fontColor=#999999;fillColor=#ddeeff;" vertex="1" parent="-kzHclHEMUVfxEQlwv1H-47">
          <mxGeometry x="20.625" y="97.25714285714285" width="13.75" height="13.142857142857142" as="geometry"/>
        </mxCell>
        <mxCell id="-kzHclHEMUVfxEQlwv1H-94" value="7" style="strokeWidth=1;shadow=0;dashed=0;align=center;html=1;shape=mxgraph.mockup.forms.rrect;rSize=0;strokeColor=#999999;fontColor=#999999;fillColor=#ddeeff;" vertex="1" parent="-kzHclHEMUVfxEQlwv1H-47">
          <mxGeometry x="34.375" y="97.25714285714285" width="13.75" height="13.142857142857142" as="geometry"/>
        </mxCell>
        <mxCell id="-kzHclHEMUVfxEQlwv1H-95" value="8" style="strokeWidth=1;shadow=0;dashed=0;align=center;html=1;shape=mxgraph.mockup.forms.rrect;rSize=0;strokeColor=#999999;fontColor=#999999;fillColor=#ddeeff;" vertex="1" parent="-kzHclHEMUVfxEQlwv1H-47">
          <mxGeometry x="48.125" y="97.25714285714285" width="13.75" height="13.142857142857142" as="geometry"/>
        </mxCell>
        <mxCell id="-kzHclHEMUVfxEQlwv1H-96" value="9" style="strokeWidth=1;shadow=0;dashed=0;align=center;html=1;shape=mxgraph.mockup.forms.rrect;rSize=0;strokeColor=#999999;fontColor=#999999;fillColor=#ddeeff;" vertex="1" parent="-kzHclHEMUVfxEQlwv1H-47">
          <mxGeometry x="61.875" y="97.25714285714285" width="13.75" height="13.142857142857142" as="geometry"/>
        </mxCell>
        <mxCell id="-kzHclHEMUVfxEQlwv1H-97" value="10" style="strokeWidth=1;shadow=0;dashed=0;align=center;html=1;shape=mxgraph.mockup.forms.rrect;rSize=0;strokeColor=#999999;fontColor=#999999;fillColor=#ddeeff;" vertex="1" parent="-kzHclHEMUVfxEQlwv1H-47">
          <mxGeometry x="75.625" y="97.25714285714285" width="13.75" height="13.142857142857142" as="geometry"/>
        </mxCell>
        <mxCell id="-kzHclHEMUVfxEQlwv1H-98" value="11" style="strokeWidth=1;shadow=0;dashed=0;align=center;html=1;shape=mxgraph.mockup.forms.rrect;rSize=0;strokeColor=#999999;fontColor=#999999;fillColor=#ddeeff;" vertex="1" parent="-kzHclHEMUVfxEQlwv1H-47">
          <mxGeometry x="89.375" y="97.25714285714285" width="13.75" height="13.142857142857142" as="geometry"/>
        </mxCell>
        <mxCell id="-kzHclHEMUVfxEQlwv1H-99" value="24" style="strokeWidth=1;shadow=0;dashed=0;align=center;html=1;shape=mxgraph.mockup.forms.rrect;rSize=0;strokeColor=#ff0000;fontColor=#ffffff;strokeWidth=2;fillColor=#008cff;" vertex="1" parent="-kzHclHEMUVfxEQlwv1H-47">
          <mxGeometry x="34.375" y="70.97142857142858" width="13.75" height="13.142857142857142" as="geometry"/>
        </mxCell>
        <mxCell id="-kzHclHEMUVfxEQlwv1H-102" value="When Pressed Calendar Pops Up" style="rounded=0;whiteSpace=wrap;html=1;" vertex="1" parent="1">
          <mxGeometry x="-230" y="-2011" width="120" height="60" as="geometry"/>
        </mxCell>
        <mxCell id="-kzHclHEMUVfxEQlwv1H-104" value="" style="verticalLabelPosition=bottom;verticalAlign=top;html=1;shadow=0;dashed=0;strokeWidth=1;shape=mxgraph.ios.iBgFlat;strokeColor=#18211b;" vertex="1" parent="1">
          <mxGeometry x="-797.5" y="-1650" width="175" height="280" as="geometry"/>
        </mxCell>
        <mxCell id="-kzHclHEMUVfxEQlwv1H-105" value="" style="verticalLabelPosition=bottom;verticalAlign=top;html=1;shadow=0;dashed=0;strokeWidth=1;shape=mxgraph.android.phone2;strokeColor=#c0c0c0;" vertex="1" parent="1">
          <mxGeometry x="-811.25" y="-1690" width="200" height="390" as="geometry"/>
        </mxCell>
        <mxCell id="-kzHclHEMUVfxEQlwv1H-106" value="" style="verticalLabelPosition=bottom;verticalAlign=top;html=1;shadow=0;dashed=0;strokeWidth=2;shape=mxgraph.android.navigation_bar_1;fillColor=#1A1A1A;strokeColor=#999999;" vertex="1" parent="1">
          <mxGeometry x="-798.75" y="-1370" width="177.5" height="30" as="geometry"/>
        </mxCell>
        <mxCell id="-kzHclHEMUVfxEQlwv1H-107" value="Appnamehere" style="rounded=0;whiteSpace=wrap;html=1;align=left;" vertex="1" parent="1">
          <mxGeometry x="-795" y="-1650" width="170" height="20" as="geometry"/>
        </mxCell>
        <mxCell id="-kzHclHEMUVfxEQlwv1H-115" style="edgeStyle=orthogonalEdgeStyle;rounded=0;orthogonalLoop=1;jettySize=auto;html=1;exitX=1;exitY=0.5;exitDx=0;exitDy=0;" edge="1" parent="1" source="-kzHclHEMUVfxEQlwv1H-109" target="-kzHclHEMUVfxEQlwv1H-116">
          <mxGeometry relative="1" as="geometry">
            <mxPoint x="-570" y="-1420" as="targetPoint"/>
          </mxGeometry>
        </mxCell>
        <mxCell id="-kzHclHEMUVfxEQlwv1H-109" value="&lt;div align=&quot;right&quot;&gt;&lt;font color=&quot;#00CC00&quot;&gt;Dashboard &lt;br&gt;&lt;/font&gt;&lt;/div&gt;&lt;div align=&quot;right&quot;&gt;&lt;font color=&quot;#00CC00&quot;&gt;Icon/Button&lt;br&gt;&lt;/font&gt;&lt;/div&gt;" style="rounded=0;whiteSpace=wrap;html=1;align=right;" vertex="1" parent="1">
          <mxGeometry x="-801.25" y="-1400" width="180" height="30" as="geometry"/>
        </mxCell>
        <mxCell id="-kzHclHEMUVfxEQlwv1H-110" value="Image Icon/Button" style="rounded=0;whiteSpace=wrap;html=1;" vertex="1" parent="1">
          <mxGeometry x="-801.25" y="-1400" width="90" height="30" as="geometry"/>
        </mxCell>
        <mxCell id="-kzHclHEMUVfxEQlwv1H-114" value="" style="shape=flexArrow;endArrow=classic;html=1;" edge="1" parent="1" source="-kzHclHEMUVfxEQlwv1H-6" target="-kzHclHEMUVfxEQlwv1H-105">
          <mxGeometry width="50" height="50" relative="1" as="geometry">
            <mxPoint x="-770" y="-1750" as="sourcePoint"/>
            <mxPoint x="-626.25" y="-1760" as="targetPoint"/>
            <Array as="points">
              <mxPoint x="-707" y="-1730"/>
            </Array>
          </mxGeometry>
        </mxCell>
        <mxCell id="-kzHclHEMUVfxEQlwv1H-116" value="When Dashboard is pressed sends you to saved image library." style="rounded=0;whiteSpace=wrap;html=1;" vertex="1" parent="1">
          <mxGeometry x="-595" y="-1471" width="120" height="60" as="geometry"/>
        </mxCell>
        <mxCell id="-kzHclHEMUVfxEQlwv1H-117" value="" style="shape=image;html=1;verticalAlign=top;verticalLabelPosition=bottom;labelBackgroundColor=#ffffff;imageAspect=0;aspect=fixed;image=https://cdn2.iconfinder.com/data/icons/freecns-cumulus/16/519587-084_Photo-128.png" vertex="1" parent="1">
          <mxGeometry x="-790" y="-1620" width="30" height="30" as="geometry"/>
        </mxCell>
        <mxCell id="-kzHclHEMUVfxEQlwv1H-118" value="" style="shape=image;html=1;verticalAlign=top;verticalLabelPosition=bottom;labelBackgroundColor=#ffffff;imageAspect=0;aspect=fixed;image=https://cdn2.iconfinder.com/data/icons/freecns-cumulus/16/519587-084_Photo-128.png" vertex="1" parent="1">
          <mxGeometry x="-790" y="-1590" width="30" height="30" as="geometry"/>
        </mxCell>
        <mxCell id="-kzHclHEMUVfxEQlwv1H-119" value="" style="shape=image;html=1;verticalAlign=top;verticalLabelPosition=bottom;labelBackgroundColor=#ffffff;imageAspect=0;aspect=fixed;image=https://cdn2.iconfinder.com/data/icons/freecns-cumulus/16/519587-084_Photo-128.png" vertex="1" parent="1">
          <mxGeometry x="-790" y="-1560" width="30" height="30" as="geometry"/>
        </mxCell>
        <mxCell id="-kzHclHEMUVfxEQlwv1H-120" value="" style="shape=image;html=1;verticalAlign=top;verticalLabelPosition=bottom;labelBackgroundColor=#ffffff;imageAspect=0;aspect=fixed;image=https://cdn2.iconfinder.com/data/icons/freecns-cumulus/16/519587-084_Photo-128.png" vertex="1" parent="1">
          <mxGeometry x="-790" y="-1440" width="30" height="30" as="geometry"/>
        </mxCell>
        <mxCell id="-kzHclHEMUVfxEQlwv1H-121" value="" style="shape=image;html=1;verticalAlign=top;verticalLabelPosition=bottom;labelBackgroundColor=#ffffff;imageAspect=0;aspect=fixed;image=https://cdn2.iconfinder.com/data/icons/freecns-cumulus/16/519587-084_Photo-128.png" vertex="1" parent="1">
          <mxGeometry x="-790" y="-1470" width="30" height="30" as="geometry"/>
        </mxCell>
        <mxCell id="-kzHclHEMUVfxEQlwv1H-122" value="" style="shape=image;html=1;verticalAlign=top;verticalLabelPosition=bottom;labelBackgroundColor=#ffffff;imageAspect=0;aspect=fixed;image=https://cdn2.iconfinder.com/data/icons/freecns-cumulus/16/519587-084_Photo-128.png" vertex="1" parent="1">
          <mxGeometry x="-790" y="-1500" width="30" height="30" as="geometry"/>
        </mxCell>
        <mxCell id="-kzHclHEMUVfxEQlwv1H-123" value="" style="shape=image;html=1;verticalAlign=top;verticalLabelPosition=bottom;labelBackgroundColor=#ffffff;imageAspect=0;aspect=fixed;image=https://cdn2.iconfinder.com/data/icons/freecns-cumulus/16/519587-084_Photo-128.png" vertex="1" parent="1">
          <mxGeometry x="-790" y="-1530" width="30" height="30" as="geometry"/>
        </mxCell>
        <mxCell id="-kzHclHEMUVfxEQlwv1H-126" value="&lt;u&gt;The Moon &amp;amp; the Sun&lt;/u&gt;" style="text;html=1;strokeColor=none;fillColor=none;align=center;verticalAlign=middle;whiteSpace=wrap;rounded=0;" vertex="1" parent="1">
          <mxGeometry x="-750" y="-1615" width="120" height="20" as="geometry"/>
        </mxCell>
        <mxCell id="-kzHclHEMUVfxEQlwv1H-127" value="&lt;u&gt;The Moon &amp;amp; the Sun 2&lt;/u&gt;" style="text;html=1;strokeColor=none;fillColor=none;align=center;verticalAlign=middle;whiteSpace=wrap;rounded=0;" vertex="1" parent="1">
          <mxGeometry x="-751" y="-1585" width="120" height="20" as="geometry"/>
        </mxCell>
        <mxCell id="-kzHclHEMUVfxEQlwv1H-128" value="&lt;u&gt;The Moon &amp;amp; the Sun 3&lt;/u&gt;" style="text;html=1;strokeColor=none;fillColor=none;align=center;verticalAlign=middle;whiteSpace=wrap;rounded=0;" vertex="1" parent="1">
          <mxGeometry x="-750" y="-1550" width="120" height="20" as="geometry"/>
        </mxCell>
        <mxCell id="-kzHclHEMUVfxEQlwv1H-129" value="&lt;u&gt;The Moon &amp;amp; the Sun 4&lt;/u&gt;" style="text;html=1;strokeColor=none;fillColor=none;align=center;verticalAlign=middle;whiteSpace=wrap;rounded=0;" vertex="1" parent="1">
          <mxGeometry x="-747.5" y="-1525" width="120" height="20" as="geometry"/>
        </mxCell>
        <mxCell id="-kzHclHEMUVfxEQlwv1H-130" value="&lt;u&gt;The Moon &amp;amp; the Sun 5&lt;/u&gt;" style="text;html=1;strokeColor=none;fillColor=none;align=center;verticalAlign=middle;whiteSpace=wrap;rounded=0;" vertex="1" parent="1">
          <mxGeometry x="-747.5" y="-1495" width="120" height="20" as="geometry"/>
        </mxCell>
        <mxCell id="-kzHclHEMUVfxEQlwv1H-131" value="&lt;u&gt;The Moon &amp;amp; the Sun 6&lt;/u&gt;" style="text;html=1;strokeColor=none;fillColor=none;align=center;verticalAlign=middle;whiteSpace=wrap;rounded=0;" vertex="1" parent="1">
          <mxGeometry x="-750" y="-1460" width="120" height="20" as="geometry"/>
        </mxCell>
        <mxCell id="-kzHclHEMUVfxEQlwv1H-132" value="&lt;u&gt;The Moon &amp;amp; the Sun 7&lt;/u&gt;" style="text;html=1;strokeColor=none;fillColor=none;align=center;verticalAlign=middle;whiteSpace=wrap;rounded=0;" vertex="1" parent="1">
          <mxGeometry x="-751" y="-1435" width="120" height="20" as="geometry"/>
        </mxCell>
      </root>
    </mxGraphModel>
  </diagram>
</mxfile>
